<?xml version="1.0" encoding="UTF-8" standalone="no"?>
<!-- Created with Inkscape (http://www.inkscape.org/) -->

<svg
   xmlns:dc="http://purl.org/dc/elements/1.1/"
   xmlns:cc="http://creativecommons.org/ns#"
   xmlns:rdf="http://www.w3.org/1999/02/22-rdf-syntax-ns#"
   xmlns:svg="http://www.w3.org/2000/svg"
   xmlns="http://www.w3.org/2000/svg"
   xmlns:sodipodi="http://sodipodi.sourceforge.net/DTD/sodipodi-0.dtd"
   xmlns:inkscape="http://www.inkscape.org/namespaces/inkscape"
   width="314.59872"
   height="100"
   viewBox="0 0 314.5987 100"
   id="svg2"
   version="1.1"
   inkscape:version="0.91 r13725"
   sodipodi:docname="logo.svg">
  <defs
     id="defs4" />
  <sodipodi:namedview
     id="base"
     pagecolor="#ffffff"
     bordercolor="#666666"
     borderopacity="1.0"
     inkscape:pageopacity="0.0"
     inkscape:pageshadow="2"
     inkscape:zoom="0.98994949"
     inkscape:cx="297.9431"
     inkscape:cy="-21.750777"
     inkscape:document-units="px"
     inkscape:current-layer="layer1"
     showgrid="false"
     inkscape:object-paths="false"
     inkscape:snap-nodes="true"
     inkscape:object-nodes="true"
     fit-margin-top="0"
     fit-margin-left="0"
     fit-margin-right="0"
     fit-margin-bottom="0"
     units="px"
     inkscape:window-width="1366"
     inkscape:window-height="705"
     inkscape:window-x="-8"
     inkscape:window-y="-8"
     inkscape:window-maximized="1" />
  <metadata
     id="metadata7">
    <rdf:RDF>
      <cc:Work
         rdf:about="">
        <dc:format>image/svg+xml</dc:format>
        <dc:type
           rdf:resource="http://purl.org/dc/dcmitype/StillImage" />
        <dc:title></dc:title>
      </cc:Work>
    </rdf:RDF>
  </metadata>
  <g
     inkscape:label="Layer 1"
     inkscape:groupmode="layer"
     id="layer1"
     transform="translate(-82.209546,-370.44867)">
    <path
       style="font-style:normal;font-weight:normal;font-size:40px;line-height:125%;font-family:sans-serif;letter-spacing:0px;word-spacing:0px;fill:#000000;fill-opacity:1;stroke:none;stroke-width:1px;stroke-linecap:butt;stroke-linejoin:miter;stroke-opacity:1"
       d="m 142.69503,370.44867 c -6.87795,0 -13.17148,0.74176 -18.88064,2.22521 -5.66421,1.43854 -10.74399,3.46148 -15.23937,6.06881 -4.45046,2.6073 -8.33896,5.70913 -11.665547,9.30545 -3.281636,3.59629 -6.023825,7.55226 -8.226568,11.86783 -2.010709,3.97952 -3.531646,8.22373 -4.605527,12.71072 l 23.438982,0 c 0.042,-0.12256 0.0714,-0.24858 0.11462,-0.37086 1.57339,-4.45047 3.88851,-8.36145 6.94539,-11.73298 3.05684,-3.37154 6.81049,-6.0463 11.26096,-8.02428 4.49538,-2.02294 9.66509,-3.0344 15.50907,-3.0344 2.51742,0 4.83253,0.17987 6.94537,0.53944 2.15779,0.35965 4.15825,0.83167 6.00134,1.41606 1.84313,0.53945 3.5289,1.1688 5.05734,1.88805 1.57339,0.71929 3.03437,1.43854 4.383,2.15779 l 4.51786,-20.63384 c -1.43851,-0.49449 -3.1018,-0.98899 -4.98988,-1.48345 -1.8431,-0.53948 -3.86603,-1.01147 -6.06877,-1.41606 -2.20274,-0.44955 -4.51789,-0.80919 -6.94538,-1.0789 -2.42753,-0.26963 -4.94493,-0.40459 -7.55225,-0.40459 z m 234.24136,24.57855 c -4.7876,0 -8.92113,0.65407 -12.39382,1.96897 -3.43896,1.28121 -6.27105,2.98721 -8.4963,5.11127 -2.22521,2.12409 -3.85702,4.53135 -4.90222,7.22859 -0.42123,1.08704 -0.73975,2.18716 -0.99123,3.29064 l 17.47808,0 c 0.34041,-0.7148 0.78937,-1.39624 1.41606,-2.02294 0.77546,-0.77545 1.82062,-1.41606 3.13553,-1.92177 1.3149,-0.53945 2.93324,-0.80916 4.85502,-0.80916 1.7195,0 3.37157,0.14846 4.95618,0.45176 1.58461,0.30347 3.08159,0.69456 4.49762,1.16655 1.44979,0.47202 2.79839,1.02497 4.04587,1.66557 1.00429,0.47572 1.87842,0.97356 2.7377,1.46999 l 0.83611,0 2.69727,-13.65476 c -1.21378,-0.50571 -2.56238,-0.99797 -4.04587,-1.46999 -1.48348,-0.47202 -3.06809,-0.89008 -4.75386,-1.26097 -1.68577,-0.37087 -3.45246,-0.6608 -5.30681,-0.86312 -1.85435,-0.23615 -3.77613,-0.35063 -5.76533,-0.35063 z m -196.17665,1.21375 -3.48619,16.38572 16.45315,0 3.51989,-16.38572 -16.48685,0 z m 46.32501,0 -3.51988,16.38572 16.47334,0 3.48619,-16.38572 -16.43965,0 z m 32.67026,0 -3.45919,16.38572 16.48684,0 3.45919,-16.38572 -16.48684,0 z m 32.87253,0 -3.48615,16.38572 16.48011,0 0.81588,-3.84356 6.41944,0 c 3.67497,0 6.45986,0.84289 8.34795,2.52866 0.46214,0.40438 0.8647,0.84181 1.21374,1.3149 l 18.55698,0 c -0.23615,-1.35468 -0.5874,-2.65204 -1.05866,-3.89752 -0.94405,-2.52865 -2.3938,-4.69994 -4.34931,-6.52056 -1.92178,-1.85435 -4.383,-3.3041 -7.38367,-4.3493 -3.00068,-1.0789 -6.56103,-1.61834 -10.67432,-1.61834 l -24.88199,0 z M 82.580412,421.3455 c -0.239877,2.33528 -0.37087,4.69849 -0.37087,7.09373 0,6.33848 0.966509,12.09259 2.899528,17.26231 1.977974,5.12473 4.810068,9.5302 8.496288,13.21643 3.686223,3.68623 8.204092,6.54079 13.553602,8.56372 5.34952,1.97799 11.39581,2.96698 18.13892,2.96698 5.03483,0 9.55268,-0.38212 13.5536,-1.14635 4.04583,-0.71926 7.73205,-1.77567 11.05863,-3.16923 l 4.58532,-20.56644 c -1.57339,0.80919 -3.23669,1.57339 -4.98988,2.29267 -1.70828,0.71926 -3.5289,1.37108 -5.46193,1.95548 -1.93298,0.53945 -3.97839,0.98899 -6.13618,1.34863 -2.15779,0.31452 -4.47291,0.47202 -6.94539,0.47202 -3.91098,0 -7.43988,-0.53944 -10.58662,-1.61834 -3.14678,-1.12384 -5.84402,-2.74218 -8.0917,-4.85502 -2.24773,-2.15779 -3.97845,-4.81007 -5.19219,-7.95685 -1.21375,-3.14678 -1.82063,-6.76558 -1.82063,-10.85637 0,-1.69902 0.13116,-3.36273 0.31691,-5.00337 l -23.007408,0 z m 92.838828,0 -10.08095,47.41737 16.48685,0 6.21712,-29.33242 29.79097,0 -6.16993,29.33242 16.43292,0 10.08764,-47.41737 -16.49357,0 -0.82266,3.82332 -29.83816,0 0.82265,-3.82332 -16.43288,0 z m 79.03569,0 -10.02022,47.41737 16.48685,0 10.02021,-47.41737 -16.48684,0 z m 32.8321,0 -10.0809,47.41737 16.48684,0 5.25958,-24.98311 10.16184,0 c 5.63048,0 10.47203,-0.72826 14.51787,-2.17802 4.04587,-1.48349 7.38367,-3.45246 10.01348,-5.91369 2.62981,-2.46125 4.56509,-5.31357 5.81256,-8.55026 0.71694,-1.87955 1.20553,-3.81251 1.51046,-5.79229 l -17.36346,0 c -0.1381,0.58878 -0.26584,1.17843 -0.47876,1.74646 -0.57317,1.61834 -1.46999,3.0546 -2.68377,4.30208 -1.21374,1.21374 -2.76466,2.19151 -4.65271,2.93324 -1.85435,0.70803 -4.07956,1.05866 -6.67567,1.05866 l -7.4848,0 2.13756,-10.04044 -16.48012,0 z m 62.59608,0 c 0.16779,1.0309 0.38899,2.02331 0.70127,2.96021 0.67433,1.9892 1.61834,3.80986 2.83212,5.46189 1.21375,1.61834 2.6635,3.10183 4.34927,4.45043 1.68577,1.31491 3.56035,2.54892 5.61698,3.69524 1.92181,1.11259 3.54012,2.12406 4.85502,3.03437 1.34864,0.87661 2.42753,1.73299 3.23668,2.57588 0.80919,0.80915 1.38237,1.67227 1.7195,2.58258 0.37087,0.87661 0.55295,1.86785 0.55295,2.98047 0,1.11259 -0.18195,2.15779 -0.55295,3.13553 -0.37086,0.97773 -0.97773,1.84085 -1.82062,2.58257 -0.84288,0.74177 -1.94201,1.32841 -3.29064,1.7667 -1.3486,0.40459 -2.98044,0.60687 -4.90222,0.60687 -1.75319,0 -3.49292,-0.16848 -5.21239,-0.50572 -1.71949,-0.3373 -3.38503,-0.80915 -5.00337,-1.41606 -1.58465,-0.60687 -3.12206,-1.3149 -4.60555,-2.12405 -1.44976,-0.80916 -2.79839,-1.66554 -4.04583,-2.57585 l -2.77816,14.36275 c 1.21374,0.64061 2.60957,1.26098 4.19418,1.86785 1.58465,0.60688 3.29065,1.16655 5.11127,1.67227 1.85435,0.47202 3.78963,0.84289 5.81256,1.11263 2.05663,0.30347 4.16722,0.45178 6.32501,0.45178 3.84356,0 7.19486,-0.37086 10.06068,-1.11262 2.89951,-0.70803 5.38097,-1.65204 7.43763,-2.83209 2.05663,-1.18005 3.7559,-2.54215 5.1045,-4.09306 1.38233,-1.55092 2.46123,-3.15576 3.23668,-4.80783 0.77546,-1.68577 1.31491,-3.3513 1.61834,-5.00334 0.33731,-1.65207 0.50575,-3.16925 0.50575,-4.55159 0,-2.39379 -0.31693,-4.55158 -0.95754,-6.47336 -0.64057,-1.92178 -1.58461,-3.69524 -2.83208,-5.31358 -1.24748,-1.65203 -2.76466,-3.18272 -4.55159,-4.59878 -1.75319,-1.44976 -3.77613,-2.88601 -6.06877,-4.30207 -1.75319,-1.0789 -3.25691,-2.05664 -4.50439,-2.93325 -1.21375,-0.91031 -2.20498,-1.78692 -2.98044,-2.62981 -0.007,-0.0104 -0.0138,-0.0173 -0.0207,-0.0276 l -19.14362,0 z"
       id="flowRoot4136"
       inkscape:connector-curvature="0" />
  </g>
</svg>
